<svg width="256" height="256" viewBox="0 0 256 256" fill="none" xmlns="http://www.w3.org/2000/svg">
<rect width="256" height="256" fill="black"/>
<path d="M81.7415 112.208L83.5335 111.12C83.7895 109.797 83.2775 109.136 81.9975 109.136C80.1628 109.136 79.2455 110.544 79.2455 113.36C79.2455 114.469 79.3948 115.749 79.6935 117.2C82.9362 119.376 84.5575 122.171 84.5575 125.584C84.5575 128.955 83.3842 131.579 81.0375 133.456C78.6908 135.333 75.5122 136.272 71.5015 136.272C69.8375 136.272 68.1095 136.101 66.3175 135.76C64.4402 136.955 63.5015 137.851 63.5015 138.448C63.5015 139.045 64.8668 139.344 67.5975 139.344H74.1255C83.8108 139.344 88.6535 142.821 88.6535 149.776C88.6535 153.531 87.1815 156.496 84.2375 158.672C81.3362 160.891 76.7922 162 70.6055 162C60.0668 162 54.7975 159.717 54.7975 155.152C54.7975 152.677 56.4402 150.971 59.7255 150.032L63.5655 151.76C63.2242 152.997 63.0535 154.171 63.0535 155.28C63.0535 158.949 65.7842 160.784 71.2455 160.784C74.5735 160.784 77.1335 160.165 78.9255 158.928C80.7175 157.691 81.6135 156.155 81.6135 154.32C81.6135 152.485 81.0588 151.248 79.9495 150.608C78.8828 150.011 76.7282 149.712 73.4855 149.712H67.2775C63.8215 149.712 61.3468 149.136 59.8535 147.984C58.3602 146.832 57.6135 145.424 57.6135 143.76C57.6135 142.053 58.1468 140.645 59.2135 139.536C60.2802 138.384 62.1788 136.976 64.9095 135.312C59.9602 133.904 57.4855 130.661 57.4855 125.584C57.4855 122.384 58.6375 119.803 60.9415 117.84C63.2455 115.877 66.7015 114.896 71.3095 114.896C74.0828 114.896 76.4508 115.429 78.4135 116.496C78.1575 115.344 78.0295 114.299 78.0295 113.36C78.0295 110.971 78.6695 109.243 79.9495 108.176C81.2295 107.109 82.6588 106.576 84.2375 106.576C85.8162 106.576 87.0748 107.003 88.0135 107.856C88.9948 108.667 89.4855 109.797 89.4855 111.248C89.4855 112.699 89.1015 113.787 88.3335 114.512C87.5655 115.195 86.6268 115.536 85.5175 115.536C84.4508 115.536 83.5548 115.259 82.8295 114.704C82.1468 114.107 81.7842 113.275 81.7415 112.208ZM68.1735 124.176V127.632C68.1735 130.491 68.4082 132.432 68.8775 133.456C69.3895 134.48 70.1362 134.992 71.1175 134.992C72.1415 134.992 72.8668 134.501 73.2935 133.52C73.7628 132.496 73.9975 130.427 73.9975 127.312V124.176C73.9975 120.848 73.7842 118.672 73.3575 117.648C72.9308 116.581 72.2055 116.048 71.1815 116.048C70.2002 116.048 69.4535 116.603 68.9415 117.712C68.4295 118.779 68.1735 120.933 68.1735 124.176ZM103.25 130.96H105.106V126.032C105.106 121.979 104.871 119.269 104.402 117.904C103.975 116.496 103.122 115.792 101.842 115.792C101.074 115.792 100.37 116.005 99.73 116.432C99.1327 116.816 98.834 117.371 98.834 118.096C98.834 118.779 98.962 119.483 99.218 120.208H100.818C101.159 121.104 101.33 122.192 101.33 123.472C101.33 124.709 100.797 125.797 99.73 126.736C98.6633 127.632 97.3193 128.08 95.698 128.08C92.0287 128.08 90.194 126.309 90.194 122.768C90.194 117.52 94.6527 114.896 103.57 114.896C108.647 114.896 112.146 115.771 114.066 117.52C116.029 119.227 117.01 122.384 117.01 126.992V139.984C117.01 142.203 117.629 143.312 118.866 143.312C120.317 143.312 121.17 141.115 121.426 136.72L122.386 136.784C122.215 140.539 121.511 143.12 120.274 144.528C119.037 145.936 117.01 146.64 114.194 146.64C109.074 146.64 106.13 145.061 105.362 141.904C104.807 143.525 103.975 144.72 102.866 145.488C101.757 146.256 100.135 146.64 98.002 146.64C91.6873 146.64 88.53 144.059 88.53 138.896C88.53 135.867 89.7247 133.797 92.114 132.688C94.546 131.536 98.258 130.96 103.25 130.96ZM100.69 138.832C100.69 141.051 100.797 142.48 101.01 143.12C101.266 143.76 101.714 144.08 102.354 144.08C103.037 144.08 103.655 143.547 104.21 142.48C104.807 141.371 105.106 139.856 105.106 137.936V131.984H104.658C102.013 131.984 100.69 133.925 100.69 137.808V138.832ZM122.759 98H138.439V144.848H142.023V146H123.015V144.848H126.535V99.152H122.759V98ZM166.625 128.784C166.625 124.389 166.412 121.445 165.985 119.952C165.558 118.416 164.726 117.648 163.489 117.648C162.252 117.648 161.142 118.459 160.161 120.08C159.18 121.659 158.689 123.792 158.689 126.48V138.192C158.689 140.027 159.052 141.584 159.777 142.864C160.502 144.144 161.569 144.784 162.977 144.784C164.385 144.784 165.345 143.845 165.857 141.968C166.369 140.091 166.625 136.805 166.625 132.112V128.784ZM158.561 115.536V120.592C160.225 116.795 163.169 114.896 167.393 114.896C171.062 114.896 173.9 116.219 175.905 118.864C177.953 121.509 178.977 125.52 178.977 130.896C178.977 136.272 177.868 140.24 175.649 142.8C173.473 145.36 170.188 146.64 165.793 146.64C163.745 146.64 162.209 146.384 161.185 145.872C160.161 145.36 159.329 144.571 158.689 143.504V160.08H166.945V161.232H143.265V160.08H146.785V116.688H143.393V115.536H158.561ZM190.298 111.12C188.037 111.12 186.415 110.544 185.434 109.392C184.495 108.24 184.026 106.811 184.026 105.104C184.026 103.397 184.538 101.989 185.562 100.88C186.629 99.7707 188.229 99.216 190.362 99.216C192.495 99.216 194.117 99.728 195.226 100.752C196.335 101.733 196.89 103.163 196.89 105.04C196.89 106.875 196.357 108.347 195.29 109.456C194.223 110.565 192.559 111.12 190.298 111.12ZM180.634 115.536H196.314V144.848H199.898V146H180.89V144.848H184.41V116.688H180.634V115.536Z" fill="white"/>
</svg>
